# xmcd
#
# Track frame offsets:
#   150
#   3447
#   22989
#   43882
#   70612
#   92667
#   120984
#   139727
#   162869
#   176000
#   201505
#
# Disc length: 3204 seconds
#
# Revision: 1
# Processed by: cddbd v1.5PL3 Copyright (c) Steve Scherf et al.
# Submitted via: Media_Universe 3.0
#
DISCID=8c0c820b
DTITLE=Mark Maxwell - Big Sur
DYEAR=2001
DGENRE=Blues
TTITLE0=Waves
TTITLE1=Hidden Cove
TTITLE2=Paradise
TTITLE3=Chumash
TTITLE4=Big Sur
TTITLE5=Spirits
TTITLE6=Red Wood
TTITLE7=Paublo
TTITLE8=Pieces of Jade
TTITLE9=Nepenthe
TTITLE10=MorningMist
EXTD=
EXTT0=
EXTT1=
EXTT2=
EXTT3=
EXTT4=
EXTT5=
EXTT6=
EXTT7=
EXTT8=
EXTT9=
EXTT10=
PLAYORDER=
